<svg width="67" height="103" fill="none" xmlns="http://www.w3.org/2000/svg"><g clip-path="url(#clip0_974_11358)" fill="#597B00"><path d="M31.158 46.858c-.645-.132-1.312-.123-1.886-.152-4.408-.23-8.871-.246-13.39-.048-.68.03-1.232.062-1.655.098-.028.003-.036.017-.025.042a.09.09 0 00.02.028c.015.012.035.02.06.02.56.033 1.122.07 1.685.112a.109.109 0 01.078.042c2.076 2.804 4.746 4.814 8.01 6.03.01.004.017-.002.022-.02.002-.008 0-.013-.008-.016a21.232 21.232 0 01-7.273-5.922.05.05 0 01.04-.08c3.988.162 7.936.163 11.844.004a1284.869 1284.869 0 01-4.727 6.654c-.428.599-.7 1.039-1.415.895-.308-.062-.63-.265-.927-.437-3.189-1.83-5.988-4.112-7.921-7.262a.139.139 0 00-.146-.064.39.39 0 01-.303-.06.107.107 0 00-.086-.015.417.417 0 01-.34-.052.148.148 0 00-.106-.02.804.804 0 01-.491-.055.15.15 0 00-.086-.013.55.55 0 01-.366-.059c3.17-5.631 3.999-12.013 2.145-18.233-.156-.52-.32-1.06-.494-1.62a78.01 78.01 0 012.309.764c.206.072.398.18.594.246l6.274 2.106c.053.018.103.02.151.009a.39.39 0 00.146-.06c2.648-2.193 4.577-4.8 6.503-7.784 1.94-3.008 3.878-6.291 6.173-8.87.772-.87 4.66-5.69 5.966-4.689.568.436.452 1.113.176 1.692a336.655 336.655 0 01-1.977 4.076c-.085.17-.052.198.099.082.311-.24.655-.7.847-.915 1.772-1.994 3.472-4.08 5.603-5.58.633-.447 1.694-.511 2.113.253.165.3.115.697.11 1.047 0 .031-.008.06-.022.088-.022.04-.041.082-.058.125-.589 1.517-1.517 2.988-2.438 4.322a107.79 107.79 0 01-2.075 2.932 9.166 9.166 0 01-.71.814c-.212.221-.473.582-.778.835a.029.029 0 00-.008.036.03.03 0 00.035.016.259.259 0 00.123-.078 25.058 25.058 0 011.73-1.674c2.808-2.467 5.367-4.956 8.537-6.609.41-.215.913-.447 1.38-.28.743.268.745 1.258.463 1.81-1.827 3.577-4.693 6.2-7.498 8.971a.203.203 0 00-.06.128.042.042 0 00.02.04.041.041 0 00.043 0c2.564-1.718 5.078-3.563 8.112-4.52.59-.188 1.338-.152 1.495.603.018.082.085.196.057.315a.212.212 0 01-.038.082.17.17 0 00-.027.139.146.146 0 01-.012.09c-.102.209-.189.406-.332.591a29.54 29.54 0 01-2.87 3.25c-2.849 2.81-6.177 5.055-9.203 7.66a.05.05 0 00.008.08c.01.005.02.007.03.006.363-.052.777.038 1.057.049 1.433.056 2.703.163 3.812.321.85.121 1.761.35 2.731.69.429.149 1.081.255 1.144.837.088.82-.489 1.186-1.17 1.417a58.796 58.796 0 01-7.829 2.074c-.903.173-1.93.337-3.081.49-.119.016-.312-.035-.464.065a.121.121 0 01-.085.019c-.303-.043-.572.062-.835.063-.144 0-.287 0-.43.002-.013 0-.019.006-.019.018v.028c0 .007.004.011.01.012.501.08 1.005.104 1.511.075a.65.65 0 01.332.066.19.19 0 00.087.019c.393-.005.828.053 1.212.003.048-.007.09.01.125.049a.105.105 0 00.08.035c.504-.001.907-.006 1.477.054.381.04.745.002 1.134.057.395.054.762-.005 1.159.081.203.043.465.015.637.028 1.48.118 2.967.197 4.443.34.268.026.554-.037.794.025.344.089.736.01.974.07.337.083.642.035.99.101.174.033.351.037.532.014a.182.182 0 01.09.011c.247.095.552.068.738.091 2.048.24 4.047.594 6.043 1.228.502.16 1.24.542.98 1.176-.338.827-3.24 1.402-4.092 1.528a26.14 26.14 0 00-.726.118c-.17.03-.422.003-.63.096a.163.163 0 01-.088.01c-.25-.035-.508.044-.692.058a289.75 289.75 0 00-3.82.309l-.067-.001c-.05-.002-.08.022-.087.072a.069.069 0 00.01.05c.01.015.026.025.043.028.83.16 1.662.311 2.495.453 3.135.531 6.397 1.253 9.313 2.64.118.056.228.177.33.362.281.506.126 1.027-.418 1.268a.147.147 0 01-.079.012.089.089 0 00-.089.043.085.085 0 01-.083.037c-.235-.039-.43.043-.603.069-1.225.178-2.05.269-2.474.27-1.317.008-2.634.01-3.952.007a.116.116 0 01-.06-.017l-.056-.034a.131.131 0 00-.068-.019l-1.269-.002a.112.112 0 01-.064-.018.605.605 0 01-.03-.025.087.087 0 00-.06-.024 84.706 84.706 0 00-1.127-.001.163.163 0 01-.093-.038.052.052 0 00-.027-.01l-1.845-.083a.028.028 0 00-.027.02.027.027 0 00.001.019c.003.005.007.01.013.012.938.47 2.015.787 3.007 1.131a126.57 126.57 0 015.257 1.956c.534.212 1.07.678 1.024 1.31-.048.644-.378 1.05-.99 1.22-.904.25-1.987.143-2.923.145a.192.192 0 01-.088-.02c-.166-.083-.346-.037-.48-.053-2.24-.266-4.411-.94-6.557-1.606a.044.044 0 00-.055.027c-.014.037 0 .067.042.09 1.417.8 2.825 1.611 4.225 2.437.457.269.708.548.668 1.077-.057.778-1.551.523-2.008.511-1.176-.028-2.373-.286-3.547-.59-.465-.12-1.063-.3-1.795-.54-5.248-1.715-9.84-3.423-15.65-5.468a41.225 41.225 0 00-1.138-.39zm-13.984-15.07a54.669 54.669 0 01-.206 6.09c-.265 3.036-1.232 5.964-2.703 8.597-.064.116-.058.12.02.013 1.884-2.577 2.97-5.505 3.256-8.782.158-1.792.186-3.586.086-5.382-.086-1.566-.412-3.128-1.273-4.466-.002-.003-.003-.004-.006-.004l-.034-.005c-.017-.002-.02.004-.012.019.65 1.154.85 2.595.872 3.92zm19.793-3.736c.386.102.764.207 1.167.247 1.472.15 2.946.285 4.42.407.022.002.032-.008.031-.029v-.029a.044.044 0 00-.01-.03.046.046 0 00-.027-.016c-2.024-.357-3.61-.602-4.758-.734-.241-.028-.516.016-.825.132-.054.02-.053.038.002.052zm-12.95 2.392a88.726 88.726 0 0011.764 4.005c.308.081.925.207 1.851.379.028.005.048-.005.06-.03.02-.038.011-.064-.028-.078-4.838-1.685-9.658-3.394-14.576-4.836-.056-.017-.082.004-.078.063a.062.062 0 00.037.056c.319.156.642.303.97.44zm21.955 7.226a76.381 76.381 0 013.47 2.905c.505.45 2.423 2.246 2.367 2.83-.044.452-.755.627-1.137.658-1.358.112-2.198-.221-3.735-.768-2.76-.982-5.488-2.022-8.12-3.34a.034.034 0 00-.043.01.037.037 0 00.001.044c.02.025.055.054.103.085 2.604 1.722 5.698 2.987 8.622 4.03.76.271 1.333.436 1.721.495.914.138 3.171.193 3.172-1.27.001-.634-1.182-1.833-1.644-2.246a35.793 35.793 0 00-4.427-3.373 1.97 1.97 0 00-.29-.167c-.243-.09-.263-.053-.06.107z"/><path d="M13.024 26.87c2.51 6.634 1.734 13.343-1.538 19.493a25.202 25.202 0 01-.927-3.278c-.12-.57-.201-1.229-.3-1.847-.027-.174-.005-.49-.062-.705-.11-.416-.053-.987-.072-1.343a.121.121 0 00-.03-.068.133.133 0 01-.03-.08c-.018-.668.083-1.282.07-1.988-.007-.29.064-.63.095-.975.071-.799.239-1.757.501-2.873a29.097 29.097 0 012.293-6.337zM0 64.837v-2c.376-3.886 2.998-6.552 6.786-7.086 2.195-.31 4.6.122 6.29 1.576a7.75 7.75 0 011.623 1.947.061.061 0 01-.022.084c-.774.425-1.554.846-2.341 1.264-.01.005-.06.04-.146.106-.08.061-.15.042-.21-.056-.928-1.54-2.44-2.269-4.21-2.218a1.48 1.48 0 00-.274.057c-.123.033-.262.01-.383.035-2.171.44-3.58 2.148-3.94 4.297-.034.202-.03.525-.075.786-.053.309.06.651.032.985a.092.092 0 00.029.075c.037.032.055.067.055.106l.001.098c.333 1.896 1.564 3.47 3.439 3.95.977.25 1.971.237 2.983-.04 1.484-.406 2.396-1.373 2.736-2.9a.093.093 0 00-.09-.114H8.47a.047.047 0 01-.047-.047v-2.547c0-.047.024-.07.07-.07h6.957a.077.077 0 01.056.023.076.076 0 01.02.056l-.095 2.11a.15.15 0 01-.02.067c-.084.145-.058.298-.08.42-.54 3.002-2.63 5.284-5.636 5.867-.105.02-.251-.006-.384.077a.13.13 0 01-.084.019 2.01 2.01 0 00-.618.022c-.28.052-.49.04-.754.04-.302 0-.64-.108-.992-.062a.14.14 0 01-.086-.016c-.175-.093-.36-.056-.514-.085C2.673 70.975.49 68.438 0 64.837zm20.638-2.233c0 .14.034.15.104.029.467-.812 1.163-1.31 2.089-1.496.21-.042.617-.049 1.221-.02a.17.17 0 01.085.03c.028.018.05.036.085.039.382.027.541.172.478.436a.269.269 0 01-.014.04.593.593 0 00-.041.363.142.142 0 01-.014.094.68.68 0 00-.061.413.178.178 0 01-.013.102.743.743 0 00-.055.426.148.148 0 01-.017.099.52.52 0 00-.048.392.109.109 0 01-.016.088.404.404 0 00-.06.309.045.045 0 01-.018.045.044.044 0 01-.047.002c-1.537-.877-3.39-.113-3.62 1.735-.01.074-.038.14-.038.207v5.487a.048.048 0 01-.048.049h-2.737c-.046 0-.07-.024-.07-.071V61.45a.047.047 0 01.047-.047h2.749a.059.059 0 01.059.06v1.14zm7.866 4.383a1.77 1.77 0 00.03.53c.198.99.76 1.62 1.686 1.891.203.06.45.063.683.136a.104.104 0 00.088-.01c.183-.114.338-.05.512-.092a2.586 2.586 0 001.662-1.233.06.06 0 01.068-.032c.506.093 1.01.18 1.513.262.1.016.297-.01.432.062a.162.162 0 00.089.022c.17-.005.335.028.493.099.031.013.041.036.03.068-.595 1.6-1.966 2.645-3.573 2.975-.663.134-1.444.096-2.167.09a1.322 1.322 0 00-.336-.069c-.422-.041-.88-.186-1.372-.433-2.054-1.033-2.965-2.987-2.832-5.244.002-.033.02-.119.055-.256.028-.11.002-.252.019-.359.364-2.243 1.996-3.99 4.227-4.246.512-.06 1.142-.066 1.89-.02.03.002.059.01.086.024.105.057.213.034.302.053 2.75.578 3.989 3.03 3.731 5.698-.002.028-.018.043-.046.043H28.55c-.028 0-.043.013-.046.041zm4.589-1.927a.06.06 0 00.06-.049.061.061 0 00-.001-.027c-.231-.92-.798-1.512-1.7-1.778a1.998 1.998 0 00-1.085-.009c-.957.248-1.552.855-1.784 1.82-.006.029.004.043.033.043h4.477zm8.465 6.612a4.969 4.969 0 01-3.883-3.506c-.232-.807-.185-1.776-.162-2.66a.185.185 0 01.024-.082c.06-.102.035-.201.054-.293.459-2.193 1.953-3.606 4.152-3.985.412-.071 1.035-.076 1.866-.014.029.003.056.01.083.022.136.063.288.027.418.057 2.12.468 3.456 2.173 3.655 4.323.033.356.126.893.073 1.36a.058.058 0 01-.057.051H40.5a.065.065 0 00-.065.06c-.028.269.032.471.114.77.283 1.028.97 1.596 2.06 1.704.008 0 .068.014.18.041.11.027.209-.034.313-.041a2.567 2.567 0 001.494-.611c.158-.135.258-.331.437-.482a.106.106 0 00.039-.078c.003-.058.027-.098.07-.12.03-.015.072-.014.124.003.138.046.28.08.427.1l1.618.23c.147.021.291.055.433.1.029.01.037.028.025.055-.486 1.094-1.186 1.96-2.226 2.51-1.143.602-2.3.619-3.641.555a.098.098 0 01-.052-.017c-.093-.062-.204-.035-.293-.052zm3.563-6.611a.019.019 0 00.017-.013.018.018 0 000-.012.018.018 0 00-.006-.01.185.185 0 01-.067-.18.191.191 0 00-.012-.095c-.882-2.239-3.96-2.126-4.517.265-.007.03.004.044.033.044h4.552zm11.282-.668c-.31-.588-.94-.865-1.584-.842-1.095.04-1.825.802-1.955 1.885a.33.33 0 01-.05.138.173.173 0 00-.027.094v5.757a.047.047 0 01-.014.034.047.047 0 01-.033.013h-2.76c-.032 0-.047-.015-.047-.047v-9.977c0-.03.014-.044.044-.044h2.763c.032 0 .047.015.047.047v1.038c0 .01.004.021.01.03a.048.048 0 00.058.014.049.049 0 00.023-.02c.276-.505 1.213-1.148 1.772-1.276 2.252-.517 4.662.38 4.855 2.978.178 2.37.069 4.83.067 7.21a.047.047 0 01-.047.047h-2.758a.046.046 0 01-.033-.013.046.046 0 01-.013-.033c-.006-1.842-.006-3.68 0-5.515a2.58 2.58 0 00-.04-.426c-.06-.362-.097-.747-.278-1.092zm-35.79 9.462h-2.805a.025.025 0 00-.025.025v17.282c0 .014.011.025.025.025h2.805a.025.025 0 00.025-.025V73.88a.025.025 0 00-.025-.025zM0 84.598v-2.047c.316-3.555 2.705-6.296 6.202-6.973.208-.04.417-.08.627-.118.19-.034.428-.001.643-.04.117-.02.203-.032.257-.034 2.916-.107 5.47 1.012 6.97 3.632.016.027.01.047-.017.06L12.13 80.47a.1.1 0 01-.136-.038c-.62-1.052-1.517-1.752-2.692-2.1-.07-.022-.165 0-.238-.068a.102.102 0 00-.077-.027c-.282.024-.54-.07-.78-.07-2.646-.008-4.465 1.709-5.004 4.246-.066.312-.087.59-.063.837a.143.143 0 01-.019.087c-.116.194-.003.363.005.523.103 2.134 1.326 4.066 3.423 4.678.227.067.516.134.76.144.15.005.255.07.395.075 2.19.073 4.15-.787 4.668-3.116a.113.113 0 00-.11-.138H8.47c-.03 0-.047-.016-.047-.047V82.9a.062.062 0 01.062-.062h6.889a.14.14 0 01.14.139c.02 1.012-.07 1.979-.271 2.9-.636 2.911-2.742 5.022-5.65 5.518a10.45 10.45 0 01-1.838.162c-.282-.002-.644-.097-.988-.071a.132.132 0 01-.084-.022c-.143-.095-.295-.054-.428-.08-3.193-.633-5.451-2.77-6.096-5.982L0 84.598zm23.937 5.003c-.069-.102-.199-.194-.262-.293-2.13-3.329-.573-7.661 3.421-8.39.086-.014.239.012.345-.052a.163.163 0 01.083-.025c1.002-.025 1.8-.058 2.692.17 1.473.375 2.573 1.231 3.3 2.568.316.581.501 1.128.555 1.64a.943.943 0 00.05.252.23.23 0 01.017.09v1.235a.092.092 0 01-.014.053.342.342 0 01-.02.023.079.079 0 00-.02.047c-.243 2.119-1.722 3.769-3.667 4.341-.878.258-1.872.318-2.982.18a.09.09 0 01-.035-.013.194.194 0 00-.195-.012.093.093 0 01-.087-.002c-.171-.087-.36-.08-.498-.115-.913-.237-2.112-.854-2.683-1.697zm2.615-1.427c1.557 1.546 4.293.637 4.593-1.564.02-.14.107-.37.061-.577-.059-.266-.067-.448-.14-.666-.317-.96-.947-1.596-1.888-1.907-.131-.044-.262-.013-.397-.05a1.152 1.152 0 00-.288-.054c-2.52.067-3.775 2.998-1.941 4.818zm22.688 2.264c-.1-.08-.244-.143-.364-.26-.85-.826-1.362-1.808-1.539-2.947-.07-.45-.057-1.029-.047-1.462.005-.234.017-.42.037-.56.283-2.05 1.639-3.72 3.66-4.233.723-.184 1.555-.22 2.496-.107 3.005.362 4.248 2.954 4.148 5.743 0 .031-.017.047-.048.047h-7.23a.171.171 0 00-.148.084.175.175 0 00-.004.171c.109.204.07.396.123.57.302 1.007 1.034 1.664 2.105 1.705.024 0 .048.007.069.02.184.112.343-.01.517-.023.806-.064 1.495-.562 1.896-1.244.017-.03.042-.041.075-.036l2.52.404c.039.007.055.03.048.068a.986.986 0 01-.083.264c-1.155 2.398-3.448 3.126-5.924 2.79a4.567 4.567 0 01-2.306-.994zm5.668-5.69c-.465-2.156-3.325-2.604-4.364-.622-.065.125-.069.294-.183.423a.15.15 0 00.03.223.146.146 0 00.08.024h4.399c.032 0 .045-.016.038-.048zm4.672 5.554a1.496 1.496 0 01-.501-.446c-.018-.025-.017-.049.003-.072l1.428-1.679a.051.051 0 01.036-.018.053.053 0 01.039.013c.506.463 1.013.799 1.52 1.009.206.086.409.052.63.143.03.012.064.012.094 0 .191-.078.386-.07.551-.134.423-.163.67-.475.74-.934a.105.105 0 00-.023-.084.154.154 0 01-.023-.16.095.095 0 00-.007-.081 1.421 1.421 0 00-.845-.683c-1.515-.48-3.156-1.11-3.465-2.833-.289-1.613.726-3.202 2.428-3.43.12-.016.194-.066.303-.072.795-.042 1.344-.042 1.647 0 .9.127 1.702.465 2.406 1.016a.06.06 0 01.023.042.063.063 0 01-.013.046l-1.292 1.554c-.065.078-.135.083-.209.013-.526-.495-1.494-.831-2.181-.435-.416.239-.523.712-.186 1.073.06.063.312.252.404.284 1.649.565 3.709.925 3.95 3.044.205 1.786-.852 3.285-2.551 3.826-.674.214-1.458.265-2.352.151a.256.256 0 01-.08-.022l-.05-.025a.095.095 0 00-.065-.006.6.6 0 01-.266-.02c-.62-.147-1.61-.535-2.035-1.034a.195.195 0 00-.057-.046zM40.652 86.56a.067.067 0 00.099.028.07.07 0 00.025-.03c.389-.882.79-1.75 1.204-2.606a.22.22 0 00.02-.059.248.248 0 01.017-.047l1.236-2.67a.101.101 0 01.092-.059h3.1c.036 0 .047.017.03.051l-5.058 10.193a.109.109 0 01-.099.06h-1.225a.069.069 0 01-.065-.04L34.933 81.17a.036.036 0 01.014-.048.034.034 0 01.017-.004h3.118c.028 0 .048.013.06.039l2.51 5.404z"/></g><defs><clipPath id="clip0_974_11358"><path fill="#fff" d="M0 0h67v103H0z"/></clipPath></defs></svg>