<svg width="67" height="103" viewBox="0 0 67 103" fill="none" xmlns="http://www.w3.org/2000/svg">
<g clip-path="url(#clip0_974_11358)">
<path d="M31.1584 46.8579C30.5126 46.7259 29.8462 46.7353 29.2724 46.7061C24.8641 46.4759 20.4006 46.4599 15.8819 46.658C15.2018 46.6875 14.6502 46.7202 14.2272 46.7561C14.1991 46.7586 14.1907 46.7727 14.2019 46.7985C14.2063 46.8079 14.2131 46.817 14.2225 46.8258C14.2368 46.8384 14.2568 46.8453 14.2824 46.8466C14.8421 46.8793 15.4036 46.9164 15.9671 46.9579C15.9824 46.9591 15.9972 46.9635 16.0106 46.9708C16.024 46.9781 16.0356 46.9882 16.0448 47.0003C18.1213 49.8042 20.7915 51.8142 24.0555 53.0304C24.0649 53.0341 24.072 53.0275 24.077 53.0106C24.0795 53.0024 24.077 52.9967 24.0695 52.9936C21.2074 51.5649 18.783 49.5911 16.7963 47.072C16.7906 47.0647 16.7871 47.0558 16.7862 47.0465C16.7853 47.0372 16.7871 47.0278 16.7913 47.0195C16.7956 47.0111 16.8021 47.0042 16.8101 46.9995C16.8181 46.9947 16.8273 46.9924 16.8366 46.9928C20.8243 47.1544 24.7721 47.1553 28.68 46.9956C27.1113 49.2191 25.5358 51.4373 23.9535 53.6501C23.5248 54.249 23.2534 54.6886 22.5383 54.5452C22.2295 54.4829 21.9084 54.2801 21.6108 54.1085C18.4221 52.2777 15.6226 49.996 13.6899 46.8457C13.675 46.8213 13.6531 46.8021 13.627 46.7907C13.6009 46.7792 13.5719 46.776 13.5439 46.7815C13.4322 46.8029 13.3311 46.7831 13.2407 46.7221C13.228 46.7135 13.2138 46.7077 13.1989 46.7051C13.1841 46.7025 13.1689 46.7032 13.1546 46.707C13.031 46.7378 12.9181 46.7205 12.8158 46.6551C12.7839 46.6352 12.7457 46.6281 12.7091 46.6353C12.5362 46.668 12.3724 46.6495 12.2177 46.5797C12.1902 46.5671 12.1615 46.563 12.1316 46.5674C11.9918 46.5882 11.8698 46.5683 11.7656 46.508C14.9357 40.8769 15.7649 34.4951 13.9108 28.2755C13.7554 27.7554 13.5907 27.2153 13.4166 26.655C14.2247 26.9091 14.9943 27.1637 15.7256 27.419C15.9324 27.4907 16.1243 27.5992 16.3199 27.6652C18.4114 28.367 20.503 29.069 22.5945 29.7714C22.6469 29.789 22.6971 29.7919 22.7452 29.7799C22.8163 29.7617 22.865 29.7416 22.8912 29.7195C25.539 27.5266 27.4679 24.9204 29.3941 21.9361C31.3343 18.9281 33.2717 15.6448 35.5667 13.0651C36.3388 12.1963 40.2267 7.37647 41.5333 8.37723C42.1014 8.813 41.9854 9.49024 41.7093 10.0694C41.0734 11.4031 40.4142 12.7616 39.7316 14.145C39.6474 14.3155 39.6804 14.3428 39.8308 14.2271C40.1425 13.9866 40.486 13.5272 40.6778 13.3122C42.4496 11.3182 44.1502 9.23179 46.2813 7.73112C46.914 7.28498 47.9754 7.22084 48.3938 7.98485C48.5594 8.28574 48.5089 8.68189 48.5042 9.03183C48.5036 9.06327 48.4961 9.09251 48.4817 9.11955C48.4599 9.15979 48.4406 9.20161 48.4237 9.245C47.835 10.7617 46.9065 12.2331 45.9856 13.5668C45.0584 14.9106 44.3667 15.8881 43.9106 16.4993C43.7452 16.7207 43.5084 16.992 43.2002 17.3133C42.9887 17.534 42.7285 17.8953 42.4234 18.1481C42.418 18.1522 42.4142 18.158 42.4127 18.1645C42.4112 18.1711 42.412 18.178 42.4151 18.1841C42.4182 18.1902 42.4233 18.1951 42.4296 18.198C42.4359 18.2009 42.4429 18.2016 42.4496 18.2C42.4926 18.1893 42.5338 18.1632 42.5731 18.1217C43.1235 17.5356 43.7003 16.9775 44.3037 16.4475C47.1106 13.9809 49.6704 11.4918 52.8395 9.83923C53.2504 9.62417 53.753 9.39214 54.2191 9.55909C54.9631 9.82697 54.965 10.8174 54.6833 11.3682C52.8563 14.9458 49.9905 17.5699 47.1845 20.3401C47.1496 20.3747 47.1296 20.4175 47.1246 20.4684C47.1239 20.4762 47.1253 20.4841 47.1288 20.4911C47.1323 20.4981 47.1377 20.5039 47.1443 20.508C47.151 20.512 47.1587 20.5141 47.1664 20.5139C47.1742 20.5138 47.1818 20.5114 47.1883 20.5071C49.7518 18.7895 52.2658 16.9455 55.3001 15.9872C55.8897 15.8004 56.6375 15.8362 56.7948 16.5908C56.8126 16.6729 56.8799 16.787 56.8519 16.9059C56.845 16.936 56.8322 16.9634 56.8135 16.9879C56.7854 17.0263 56.7767 17.0725 56.7873 17.1266C56.7929 17.158 56.7888 17.1882 56.7751 17.2171C56.6731 17.4256 56.5861 17.6227 56.4429 17.8085C55.5247 19.0045 54.7048 19.9411 53.5733 21.0579C50.7243 23.8678 47.396 26.1127 44.3701 28.7178C44.3621 28.7247 44.3566 28.7341 44.3543 28.7444C44.352 28.7548 44.3531 28.7656 44.3574 28.7752C44.3617 28.7849 44.3691 28.7929 44.3783 28.798C44.3875 28.8032 44.3981 28.8051 44.4085 28.8037C44.7707 28.7518 45.1853 28.8424 45.4652 28.8527C46.8978 28.9093 48.1685 29.0165 49.2773 29.1744C50.1277 29.2951 51.0381 29.5249 52.0084 29.8639C52.437 30.0129 53.0894 30.1195 53.1521 30.7005C53.2401 31.5211 52.6635 31.8871 51.9812 32.1182C49.3687 33.0029 46.7593 33.6943 44.153 34.1923C43.2501 34.3652 42.2231 34.5287 41.0719 34.6828C40.953 34.6979 40.7602 34.6469 40.6076 34.7469C40.583 34.7633 40.553 34.77 40.5234 34.7658C40.2202 34.7233 39.9515 34.828 39.6885 34.829C39.5444 34.829 39.4006 34.8296 39.2571 34.8309C39.2452 34.8309 39.2393 34.8368 39.2393 34.8488C39.2393 34.8582 39.2393 34.8677 39.2393 34.8771C39.2393 34.884 39.2427 34.8881 39.2496 34.8894C39.75 34.9686 40.2535 34.9934 40.7602 34.9639C40.8781 34.957 40.9886 34.979 41.0915 35.0299C41.1196 35.0431 41.1486 35.0494 41.1786 35.0488C41.5717 35.044 42.0069 35.1025 42.3906 35.0516C42.4393 35.0453 42.4811 35.0617 42.516 35.1006C42.5379 35.1245 42.5647 35.1365 42.5965 35.1365C43.1001 35.1346 43.5025 35.1299 44.0725 35.1902C44.4544 35.2308 44.8175 35.1921 45.2069 35.2468C45.6018 35.3015 45.9687 35.2421 46.3656 35.328C46.5687 35.3713 46.8307 35.343 47.0029 35.3562C48.4827 35.4742 49.9699 35.5534 51.4459 35.6968C51.7135 35.7222 51.9999 35.659 52.2405 35.7213C52.584 35.8099 52.9761 35.7307 53.2139 35.7901C53.5508 35.8741 53.8559 35.826 54.2032 35.892C54.3779 35.9247 54.5554 35.9294 54.7357 35.9062C54.7669 35.9024 54.7969 35.9062 54.8256 35.9175C55.0726 36.0118 55.3778 35.9854 55.564 36.008C57.6119 36.2476 59.611 36.6022 61.6074 37.2361C62.1091 37.3955 62.8475 37.7784 62.5873 38.4123C62.2495 39.2386 59.3462 39.8139 58.4954 39.9403C58.2527 39.9762 58.0106 40.0155 57.7691 40.0582C57.5988 40.0884 57.347 40.0611 57.1383 40.1535C57.1107 40.1652 57.0806 40.1691 57.0512 40.1648C56.8013 40.129 56.543 40.2082 56.3586 40.2223C55.0851 40.3167 53.8119 40.4195 52.539 40.5308C52.5328 40.5314 52.5103 40.5311 52.4717 40.5298C52.4211 40.5279 52.3921 40.5522 52.3846 40.6025C52.3818 40.62 52.3859 40.6378 52.3958 40.6523C52.4058 40.6667 52.4209 40.6766 52.438 40.6798C53.2685 40.8402 54.1002 40.9911 54.9332 41.1325C58.0677 41.6645 61.3304 42.3861 64.2458 43.7726C64.3637 43.8292 64.4739 43.95 64.5762 44.1348C64.857 44.6413 64.7016 45.162 64.1578 45.4025C64.1329 45.4138 64.1067 45.4179 64.0792 45.4148C64.0412 45.411 64.0115 45.4255 63.9903 45.4582C63.9814 45.4717 63.9688 45.4823 63.954 45.4889C63.9392 45.4954 63.9229 45.4975 63.907 45.495C63.6721 45.4563 63.4765 45.5383 63.3043 45.5638C62.0794 45.7424 61.2545 45.8326 60.8296 45.8345C59.5131 45.8421 58.1959 45.8443 56.8781 45.8411C56.8573 45.8411 56.8366 45.8352 56.8182 45.8241L56.762 45.7902C56.7408 45.7776 56.718 45.7713 56.6937 45.7713C56.2713 45.7707 55.8485 45.7698 55.4255 45.7685C55.3999 45.7685 55.3784 45.7625 55.3609 45.7506C55.3503 45.7424 55.3403 45.7342 55.331 45.726C55.3135 45.7097 55.2932 45.7015 55.2701 45.7015C54.8945 45.699 54.5192 45.6987 54.1442 45.7006C54.1167 45.7006 54.0858 45.688 54.0515 45.6629C54.0436 45.6573 54.0342 45.654 54.0244 45.6534L52.1787 45.5704C52.1725 45.5703 52.1664 45.5723 52.1615 45.5761C52.1565 45.5799 52.1529 45.5853 52.1514 45.5912C52.1499 45.5972 52.1504 45.6035 52.153 45.609C52.1556 45.6144 52.1601 45.6188 52.1656 45.6213C53.1044 46.0901 54.1807 46.408 55.1728 46.7523C56.9392 47.3654 58.6916 48.0171 60.43 48.7076C60.9635 48.9198 61.5007 49.3858 61.4539 50.0177C61.4059 50.6616 61.0758 51.0682 60.4637 51.2373C59.5596 51.4882 58.4767 51.3807 57.5407 51.3835C57.5095 51.3835 57.4802 51.3766 57.4527 51.3627C57.2871 51.2797 57.1074 51.326 56.9735 51.3099C54.7329 51.0439 52.5615 50.3705 50.4163 49.7036C50.4054 49.7002 50.3936 49.7012 50.3833 49.7063C50.3731 49.7114 50.3651 49.7202 50.3611 49.731C50.3474 49.7681 50.3614 49.7983 50.4032 49.8215C51.8196 50.6201 53.2279 51.4322 54.6281 52.2579C55.0848 52.5267 55.3356 52.8059 55.2963 53.335C55.2392 54.1132 53.7445 53.8576 53.2878 53.8463C52.1123 53.818 50.9152 53.5595 49.7406 53.2558C49.2763 53.1357 48.6783 52.9559 47.9464 52.7163C42.6976 51.0006 38.1059 49.2933 32.2965 47.2475C31.7124 47.0418 31.3331 46.912 31.1584 46.8579ZM17.1744 31.788C17.2119 33.9575 17.1567 35.71 16.9676 37.8775C16.7027 40.9137 15.7359 43.8415 14.2655 46.475C14.2006 46.5907 14.2072 46.5951 14.2852 46.4882C16.1689 43.9107 17.2543 40.9832 17.5413 37.7058C17.6986 35.9137 17.7273 34.1197 17.6274 32.3238C17.5413 30.758 17.2147 29.1961 16.3536 27.8576C16.3524 27.8551 16.3505 27.8538 16.348 27.8538L16.3143 27.8491C16.2975 27.8466 16.2934 27.8529 16.3021 27.868C16.9526 29.0216 17.152 30.4628 17.1744 31.788ZM36.9668 28.0519C37.3534 28.1538 37.7306 28.2585 38.1339 28.299C39.6065 28.4481 41.08 28.5839 42.5544 28.7065C42.5756 28.7078 42.5859 28.698 42.5853 28.6773C42.5853 28.6672 42.5853 28.6575 42.5853 28.648C42.5859 28.6372 42.5824 28.6265 42.5755 28.6179C42.5686 28.6094 42.5587 28.6037 42.5479 28.6018C40.5243 28.2447 38.9385 28.0001 37.7905 27.868C37.549 27.8403 37.2738 27.8843 36.965 28C36.9113 28.0202 36.9119 28.0375 36.9668 28.0519ZM24.0162 30.4439C27.8454 32.0543 31.767 33.3893 35.781 34.4489C36.0886 34.53 36.7057 34.6564 37.6323 34.828C37.6597 34.8331 37.6797 34.8233 37.6922 34.7988C37.7128 34.7604 37.7034 34.7344 37.6641 34.7205C32.8262 33.035 28.0061 31.3259 23.0877 29.8837C23.0316 29.8673 23.0057 29.8884 23.01 29.9469C23.0113 29.9726 23.0235 29.9912 23.0465 30.0025C23.366 30.1591 23.6892 30.3062 24.0162 30.4439ZM45.9725 37.67C47.163 38.6088 48.3192 39.5772 49.4411 40.5751C49.9465 41.025 51.8652 42.8209 51.809 43.4057C51.765 43.8566 51.0537 44.032 50.6718 44.0631C49.3138 44.1754 48.4742 43.8415 46.9374 43.2954C44.1773 42.3135 41.4491 41.2731 38.8172 39.9545C38.8101 39.9507 38.8019 39.9496 38.7942 39.9514C38.7864 39.9531 38.7795 39.9575 38.7745 39.964C38.7696 39.9704 38.7669 39.9784 38.767 39.9866C38.7671 39.9949 38.77 40.0028 38.7751 40.0092C38.7957 40.0343 38.83 40.0626 38.878 40.0941C41.4818 41.8164 44.576 43.0812 47.4999 44.1245C48.2593 44.3955 48.833 44.5602 49.2211 44.6187C50.1346 44.7574 52.3921 44.8121 52.393 43.3491C52.394 42.7153 51.2109 41.5155 50.7486 41.1033C49.3603 39.8639 47.8846 38.7396 46.3216 37.7303C46.1731 37.6341 46.0767 37.5782 46.0324 37.5625C45.789 37.4738 45.7691 37.5096 45.9725 37.67Z" fill="#597B00"/>
<path d="M13.0243 26.8691C15.5345 33.5038 14.7577 40.2129 11.4856 46.3627C11.1 45.2812 10.7912 44.1886 10.559 43.085C10.4383 42.5144 10.3578 41.856 10.2595 41.2382C10.2315 41.0637 10.2539 40.7487 10.1968 40.5327C10.0864 40.1167 10.1435 39.5461 10.1248 39.1905C10.1235 39.1672 10.1138 39.1442 10.0957 39.1216C10.077 39.0983 10.067 39.0716 10.0658 39.0414C10.0471 38.3736 10.1482 37.7605 10.1341 37.0541C10.1276 36.7636 10.1987 36.424 10.2296 36.0788C10.3013 35.2802 10.4686 34.3225 10.7313 33.2057C11.2479 31.0111 12.0122 28.899 13.0243 26.8691Z" fill="#597B00"/>
<path d="M0 64.8367V62.8362C0.376249 58.951 2.99783 56.2855 6.78559 55.7507C8.98131 55.4413 11.3867 55.8733 13.0751 57.3268C13.7406 57.8993 14.2479 58.5237 14.699 59.2736C14.7031 59.2806 14.7058 59.2883 14.707 59.2963C14.7081 59.3044 14.7076 59.3126 14.7055 59.3204C14.7034 59.3282 14.6997 59.3356 14.6947 59.342C14.6898 59.3483 14.6836 59.3536 14.6765 59.3576C13.9034 59.7826 13.1232 60.2039 12.3357 60.6215C12.3251 60.6271 12.2765 60.6627 12.1897 60.7281C12.1092 60.7891 12.0393 60.7705 11.9801 60.6724C11.0516 59.1312 9.53913 58.403 7.76926 58.4539C7.71997 58.4558 7.62887 58.475 7.49597 58.5115C7.37336 58.5445 7.2339 58.5219 7.11317 58.5464C4.94178 58.9859 3.53225 60.6941 3.17285 62.8428C3.13915 63.0446 3.14383 63.3681 3.09797 63.6294C3.04462 63.9378 3.15787 64.2802 3.12979 64.6141C3.12861 64.6282 3.13061 64.6422 3.13565 64.6551C3.14069 64.6681 3.14862 64.6796 3.15881 64.6887C3.19562 64.7207 3.21403 64.7563 3.21403 64.7952C3.21465 64.8575 3.21496 64.8902 3.21496 64.8933C3.54816 66.7892 4.77892 68.3635 6.65362 68.8436C7.63074 69.0932 8.62534 69.0797 9.63741 68.803C11.1212 68.3968 12.0331 67.43 12.3732 65.9026C12.3763 65.889 12.3763 65.8749 12.3732 65.8613C12.3701 65.8477 12.3641 65.835 12.3554 65.8241C12.3468 65.8132 12.3358 65.8044 12.3233 65.7984C12.3108 65.7924 12.2972 65.7893 12.2833 65.7894H8.47028C8.45787 65.7894 8.44597 65.7844 8.43719 65.7756C8.42842 65.7667 8.42349 65.7547 8.42349 65.7422V63.1955C8.42349 63.1484 8.44689 63.1248 8.49368 63.1248H15.4505C15.4608 63.1248 15.471 63.1269 15.4805 63.1309C15.4899 63.1349 15.4984 63.1408 15.5055 63.1482C15.5126 63.1556 15.5181 63.1644 15.5217 63.174C15.5253 63.1836 15.5269 63.1938 15.5264 63.204L15.4309 65.314C15.4297 65.3376 15.4229 65.3605 15.4112 65.381C15.327 65.5262 15.3532 65.679 15.3317 65.8007C14.7907 68.803 12.7017 71.0847 9.69543 71.6685C9.58967 71.6883 9.44366 71.6619 9.31076 71.7449C9.2853 71.7608 9.25557 71.7674 9.22653 71.7638C9.01688 71.7393 8.81097 71.7465 8.6088 71.7855C8.32989 71.8383 8.11837 71.8251 7.85537 71.8251C7.55306 71.826 7.21518 71.7176 6.86327 71.7638C6.8327 71.7676 6.80399 71.7622 6.77716 71.7477C6.60214 71.6553 6.41776 71.6921 6.26333 71.6629C2.67305 70.9752 0.490434 68.438 0 64.8367Z" fill="#597B00"/>
<path d="M20.6378 62.6044C20.6378 62.744 20.6725 62.7534 20.7417 62.6327C21.2091 61.8209 21.9054 61.3223 22.8307 61.1368C23.041 61.0946 23.4482 61.0883 24.0521 61.1179C24.0833 61.1198 24.1117 61.1292 24.1373 61.1462C24.1654 61.1651 24.1879 61.183 24.2225 61.1858C24.6044 61.2128 24.7635 61.3581 24.6998 61.6216C24.6961 61.6354 24.6914 61.6486 24.6858 61.6612C24.6346 61.77 24.6209 61.8913 24.6446 62.0253C24.6508 62.058 24.6465 62.0891 24.6315 62.1187C24.5679 62.2476 24.5473 62.3853 24.5697 62.5318C24.5753 62.567 24.571 62.6009 24.5566 62.6336C24.4967 62.7688 24.4786 62.911 24.5023 63.06C24.508 63.0952 24.502 63.1282 24.4846 63.159C24.4178 63.2772 24.4019 63.408 24.4368 63.5514C24.4404 63.5663 24.4408 63.5818 24.438 63.5969C24.4353 63.612 24.4295 63.6264 24.4209 63.6391C24.3598 63.7316 24.3398 63.8344 24.361 63.9476C24.3627 63.956 24.362 63.9647 24.3589 63.9727C24.3558 63.9807 24.3505 63.9877 24.3435 63.9927C24.3366 63.9977 24.3283 64.0005 24.3198 64.0009C24.3113 64.0013 24.3028 63.9991 24.2955 63.9947C22.7587 63.1175 20.9055 63.8815 20.6762 65.7303C20.6668 65.8038 20.6378 65.8708 20.6378 65.9368C20.6378 67.7673 20.6378 69.5965 20.6378 71.4245C20.6378 71.4372 20.6328 71.4495 20.6238 71.4585C20.6149 71.4675 20.6028 71.4726 20.5901 71.4726H17.8534C17.8066 71.4726 17.7832 71.449 17.7832 71.4019V61.4508C17.7832 61.4383 17.7881 61.4263 17.7969 61.4175C17.8057 61.4087 17.8176 61.4037 17.83 61.4037H20.5789C20.5945 61.4037 20.6095 61.4099 20.6206 61.4211C20.6316 61.4322 20.6378 61.4473 20.6378 61.4631V62.6044Z" fill="#597B00"/>
<path d="M28.5038 66.9871C28.4863 67.1493 28.4966 67.326 28.5347 67.5171C28.7319 68.5075 29.2938 69.1379 30.2203 69.4083C30.4234 69.4677 30.6696 69.4706 30.9026 69.5441C30.9171 69.5489 30.9324 69.5504 30.9476 69.5486C30.9628 69.5468 30.9774 69.5417 30.9906 69.5338C31.1741 69.4196 31.3294 69.4847 31.5026 69.4423C32.2251 69.2649 32.7792 68.8537 33.1648 68.2085C33.1804 68.1821 33.2032 68.1717 33.2331 68.1774C33.7392 68.2698 34.2433 68.3569 34.7456 68.4387C34.8467 68.4547 35.0433 68.4283 35.178 68.5009C35.2055 68.5167 35.2351 68.5239 35.2669 68.5226C35.4373 68.5176 35.6017 68.5506 35.7602 68.6217C35.7914 68.6355 35.8011 68.6581 35.7892 68.6896C35.1949 70.2902 33.8237 71.3353 32.2167 71.6645C31.5541 71.7994 30.7725 71.7607 30.05 71.7551C30.0483 71.7552 30.0389 71.7527 30.0235 71.748C30.008 71.7434 29.9875 71.7368 29.9658 71.7296C29.9109 71.712 29.8269 71.6975 29.714 71.6862C29.2922 71.6447 28.8348 71.5004 28.3419 71.2533C26.2875 70.2204 25.3768 68.2661 25.5097 66.0089C25.5116 65.9756 25.53 65.8904 25.565 65.7533C25.593 65.643 25.5668 65.5005 25.5837 65.394C25.9478 63.151 27.58 61.4032 29.8113 61.1476C30.323 61.0885 30.9529 61.0819 31.701 61.1278C31.7306 61.1296 31.76 61.138 31.7871 61.1523C31.8919 61.2089 31.9996 61.1862 32.0885 61.2051C34.8392 61.7833 36.0775 64.2347 35.8201 66.9031C35.8176 66.9314 35.8023 66.9456 35.7742 66.9456H28.5497C28.5222 66.9456 28.5069 66.9594 28.5038 66.9871ZM33.0927 65.0601C33.102 65.0601 33.1112 65.0579 33.1195 65.0538C33.1278 65.0497 33.1351 65.0437 33.1408 65.0364C33.1465 65.029 33.1504 65.0204 33.1523 65.0113C33.1542 65.0022 33.154 64.9927 33.1517 64.9837C32.9208 64.0643 32.354 63.4717 31.4511 63.2057C31.1036 63.1032 30.7423 63.1003 30.3673 63.1972C29.4101 63.4449 28.8155 64.0517 28.5834 65.0176C28.5765 65.0459 28.5874 65.0601 28.6161 65.0601H33.0927Z" fill="#597B00"/>
<path d="M41.5576 71.6718C39.7035 71.3342 38.1985 69.975 37.6754 68.1659C37.4432 67.3594 37.49 66.3898 37.5134 65.5069C37.5141 65.4779 37.5221 65.4493 37.5368 65.4239C37.5967 65.3221 37.5715 65.223 37.5911 65.1306C38.0497 62.9376 39.5444 61.5247 41.743 61.1464C42.1554 61.0747 42.7775 61.07 43.6092 61.1323C43.6379 61.1348 43.6654 61.142 43.6916 61.154C43.8282 61.2172 43.9799 61.1813 44.11 61.2106C46.2299 61.6793 47.5664 63.3837 47.7648 65.5343C47.7976 65.8899 47.8912 66.4266 47.8378 66.8944C47.8362 66.9085 47.8295 66.9215 47.819 66.9309C47.8084 66.9403 47.7948 66.9454 47.7807 66.9454H40.5019C40.4856 66.9453 40.4699 66.9513 40.4577 66.9623C40.4456 66.9733 40.438 66.9884 40.4364 67.0048C40.4083 67.2736 40.4682 67.4764 40.5496 67.7744C40.8329 68.8032 41.5199 69.3713 42.6106 69.4789C42.6181 69.4795 42.678 69.4933 42.7903 69.5204C42.9007 69.5468 42.999 69.4864 43.1029 69.4789C43.6688 69.4348 44.1667 69.2311 44.5967 68.8676C44.7548 68.7328 44.855 68.5366 45.0337 68.3857C45.0581 68.3649 45.0712 68.3391 45.073 68.3083C45.0762 68.2505 45.0996 68.2105 45.1432 68.1885C45.1738 68.1734 45.215 68.1744 45.2668 68.1914C45.4053 68.2373 45.5476 68.2706 45.6936 68.2913C46.2333 68.3674 46.7727 68.4441 47.3118 68.5215C47.4591 68.5422 47.6035 68.5756 47.7452 68.6215C47.7739 68.6303 47.782 68.6485 47.7695 68.6762C47.2837 69.7703 46.5837 70.6362 45.5438 71.1851C44.401 71.7879 43.2442 71.8048 41.903 71.7407C41.8841 71.7401 41.8659 71.7342 41.8506 71.7237C41.7579 71.6624 41.6466 71.6888 41.5576 71.6718ZM45.1208 65.0608C45.1247 65.0608 45.1285 65.0595 45.1317 65.0572C45.1349 65.0549 45.1373 65.0517 45.1385 65.0479C45.1398 65.0441 45.1398 65.0401 45.1386 65.0363C45.1375 65.0325 45.1352 65.0292 45.132 65.0268C45.0771 64.9828 45.0546 64.9228 45.0646 64.8467C45.069 64.814 45.0652 64.7822 45.0534 64.7514C44.1708 62.5122 41.0934 62.6254 40.5356 65.0165C40.5287 65.0454 40.54 65.0599 40.5693 65.0599L45.1208 65.0608Z" fill="#597B00"/>
<path d="M56.4028 64.3926C56.0939 63.805 55.4622 63.5277 54.8192 63.5513C53.7241 63.5909 52.9941 64.353 52.864 65.4358C52.8578 65.4862 52.8412 65.5324 52.8144 65.5745C52.7967 65.6022 52.7872 65.6346 52.7872 65.6679V71.4253C52.7872 71.4378 52.7823 71.4498 52.7735 71.4587C52.7648 71.4675 52.7529 71.4725 52.7404 71.4725H49.9794C49.9482 71.4725 49.9326 71.4568 49.9326 71.4253V61.4479C49.9326 61.4183 49.9473 61.4036 49.9766 61.4036H52.7404C52.7716 61.4036 52.7872 61.4193 52.7872 61.4507V62.4892C52.7875 62.4999 52.7911 62.5103 52.7977 62.5187C52.8043 62.5271 52.8135 62.5331 52.8238 62.5357C52.834 62.5384 52.8449 62.5376 52.8547 62.5335C52.8645 62.5293 52.8727 62.5221 52.878 62.5128C53.1541 62.0082 54.091 61.3649 54.6498 61.2366C56.9016 60.7197 59.3117 61.6177 59.5054 64.2153C59.6833 66.5856 59.5738 69.0446 59.5719 71.4253C59.5719 71.4378 59.567 71.4498 59.5582 71.4587C59.5494 71.4675 59.5375 71.4725 59.5251 71.4725H56.7669C56.7609 71.4725 56.7549 71.4713 56.7493 71.469C56.7438 71.4666 56.7387 71.4632 56.7344 71.4589C56.7302 71.4547 56.7268 71.4496 56.7245 71.4439C56.7222 71.4383 56.721 71.4323 56.721 71.4263C56.7148 69.5838 56.7145 67.7455 56.7201 65.9112C56.7207 65.7892 56.7076 65.6471 56.6808 65.4849C56.6218 65.1227 56.5844 64.7379 56.4028 64.3926Z" fill="#597B00"/>
<path d="M20.6126 73.8545H17.8085C17.7945 73.8545 17.7832 73.8659 17.7832 73.88V91.1617C17.7832 91.1758 17.7945 91.1872 17.8085 91.1872H20.6126C20.6265 91.1872 20.6378 91.1758 20.6378 91.1617V73.88C20.6378 73.8659 20.6265 73.8545 20.6126 73.8545Z" fill="#597B00"/>
<path d="M0 84.5983V82.5506C0.316349 78.9965 2.70488 76.2555 6.20156 75.5783C6.40996 75.538 6.61899 75.4987 6.82864 75.4604C7.01957 75.4255 7.2573 75.4585 7.47163 75.4207C7.58894 75.4 7.67473 75.3884 7.72902 75.3858C10.6454 75.2793 13.1987 76.3979 14.6999 79.0182C14.7149 79.0446 14.709 79.0647 14.6821 79.0786L12.1298 80.4698C12.1068 80.4825 12.0797 80.4857 12.0544 80.4787C12.029 80.4716 12.0074 80.4549 11.9941 80.4321C11.3745 79.3801 10.4773 78.6799 9.30234 78.3315C9.2312 78.3098 9.13667 78.3325 9.06367 78.2636C9.05338 78.2541 9.04125 78.2469 9.02804 78.2423C9.01483 78.2378 9.00083 78.236 8.98692 78.2372C8.7052 78.2608 8.44782 78.1665 8.20635 78.1665C5.56137 78.1589 3.7419 79.8756 3.2028 82.4129C3.13666 82.7247 3.11575 83.0036 3.14009 83.2495C3.14321 83.2809 3.13697 83.3102 3.12137 83.3372C3.00531 83.5306 3.11763 83.7004 3.12605 83.8598C3.229 85.9943 4.45228 87.926 6.54879 88.5381C6.77623 88.6051 7.06543 88.6721 7.30878 88.6815C7.45946 88.6872 7.56429 88.7523 7.70375 88.757C9.89479 88.8296 11.8537 87.9703 12.3722 85.6406C12.3759 85.624 12.3758 85.6069 12.372 85.5904C12.3682 85.5739 12.3607 85.5585 12.3502 85.5453C12.3397 85.532 12.3264 85.5214 12.3113 85.514C12.2961 85.5067 12.2795 85.5029 12.2627 85.5029H8.47028C8.43909 85.5029 8.42349 85.4871 8.42349 85.4557V82.9005C8.42349 82.884 8.42999 82.8682 8.44158 82.8565C8.45316 82.8448 8.46888 82.8382 8.48526 82.8382H15.3738C15.4106 82.8382 15.4458 82.8528 15.4721 82.8787C15.4983 82.9046 15.5135 82.9399 15.5142 82.9769C15.5348 83.9893 15.4443 84.9558 15.2428 85.8764C14.6073 88.7881 12.5005 90.899 9.59248 91.3952C8.92921 91.5077 8.31679 91.5618 7.75522 91.5574C7.47257 91.5555 7.11129 91.4603 6.76687 91.4857C6.73711 91.4882 6.70745 91.4805 6.68263 91.464C6.54037 91.3688 6.38781 91.4103 6.25491 91.3839C3.06241 90.7509 0.803975 88.6136 0.15911 85.4019C0.106074 85.1366 0.0530368 84.8687 0 84.5983Z" fill="#597B00"/>
<path d="M23.9366 89.601C23.8682 89.4992 23.7381 89.4067 23.6754 89.3077C21.5452 85.979 23.1017 81.6468 27.0963 80.9187C27.1824 80.9036 27.335 80.93 27.4407 80.8658C27.4663 80.8501 27.4941 80.8419 27.524 80.8413C28.5264 80.8158 29.3238 80.7828 30.2158 81.0101C31.689 81.3862 32.789 82.2423 33.5159 83.5785C33.8323 84.1602 34.0173 84.7073 34.0709 85.2198C34.0828 85.3373 34.0993 85.421 34.1206 85.4707C34.1324 85.4989 34.1383 85.5288 34.1383 85.5603C34.1383 85.9721 34.1383 86.384 34.1383 86.7959C34.1383 86.8173 34.1337 86.8349 34.1243 86.8487C34.1181 86.8569 34.1115 86.8647 34.1046 86.8723C34.0922 86.8855 34.085 86.9012 34.0831 86.9194C33.8407 89.0379 32.3619 90.6876 30.417 91.2602C29.5391 91.518 28.5451 91.578 27.4351 91.4403C27.4222 91.4384 27.41 91.4339 27.3995 91.4271C27.3384 91.3881 27.2735 91.384 27.2049 91.4148C27.1755 91.4287 27.1465 91.4281 27.1178 91.413C26.9465 91.3262 26.7584 91.3337 26.6199 91.2979C25.7074 91.0611 24.5084 90.4443 23.9366 89.601ZM26.5516 88.1739C28.109 89.7199 30.8448 88.8106 31.1452 86.6101C31.1648 86.4695 31.2519 86.2394 31.206 86.0328C31.1471 85.7668 31.1386 85.5848 31.0666 85.3669C30.749 84.4067 30.1194 83.771 29.1778 83.4597C29.0468 83.4163 28.9158 83.4474 28.781 83.4097C28.6475 83.3726 28.5514 83.3547 28.4927 83.3559C25.9732 83.4229 24.7181 86.3544 26.5516 88.1739Z" fill="#597B00"/>
<path d="M49.2407 90.4383C49.1406 90.3572 48.9964 90.2949 48.8757 90.178C48.0265 89.3517 47.5136 88.3695 47.337 87.2313C47.2677 86.7814 47.2799 86.2023 47.2902 85.7693C47.2952 85.5354 47.3074 85.3484 47.3267 85.2081C47.6103 83.1594 48.9655 81.489 50.9862 80.9759C51.71 80.7916 52.5424 80.7561 53.4833 80.8693C56.4877 81.2306 57.7306 83.8225 57.6314 86.6116C57.6302 86.6431 57.614 86.6588 57.5828 86.6588H50.3526C50.3228 86.6588 50.2936 86.6666 50.2677 86.6814C50.2418 86.6962 50.2202 86.7176 50.2049 86.7433C50.1896 86.7691 50.1813 86.7984 50.1806 86.8283C50.1799 86.8583 50.1869 86.888 50.201 86.9144C50.3096 87.1182 50.2712 87.3096 50.3236 87.4832C50.6259 88.4905 51.3578 89.148 52.4295 89.1885C52.4534 89.1892 52.477 89.1963 52.4978 89.2093C52.6822 89.3215 52.8413 89.1989 53.0154 89.1857C53.8212 89.1225 54.5101 88.6245 54.9107 87.9416C54.9281 87.9127 54.9531 87.9007 54.9855 87.9057L57.506 88.3104C57.5447 88.3167 57.5606 88.3393 57.5538 88.3783C57.5382 88.472 57.5107 88.56 57.4714 88.6424C56.3155 91.0401 54.0234 91.7682 51.5469 91.4315C50.6808 91.3139 49.9121 90.9829 49.2407 90.4383ZM54.9078 84.7478C54.4427 82.5916 51.5834 82.1436 50.5435 84.1263C50.479 84.2508 50.4752 84.4196 50.361 84.5488C50.342 84.5701 50.3296 84.5965 50.3251 84.6248C50.3207 84.6531 50.3245 84.6821 50.3361 84.7082C50.3477 84.7344 50.3666 84.7566 50.3904 84.7722C50.4143 84.7877 50.4421 84.796 50.4705 84.7959H54.8695C54.9019 84.7959 54.9147 84.7799 54.9078 84.7478Z" fill="#597B00"/>
<path d="M59.5805 90.3019C59.3852 90.1963 59.218 90.0476 59.0788 89.8558C59.0614 89.8313 59.0623 89.8074 59.0817 89.7841L60.5099 88.1052C60.5144 88.0999 60.5199 88.0956 60.5261 88.0925C60.5323 88.0894 60.5391 88.0876 60.5461 88.0871C60.5531 88.0867 60.5601 88.0876 60.5667 88.0899C60.5733 88.0922 60.5795 88.0958 60.5848 88.1005C61.0914 88.5626 61.5981 88.8987 62.1047 89.1088C62.3107 89.1946 62.5138 89.1606 62.7356 89.2521C62.7656 89.2642 62.7991 89.2642 62.8292 89.2521C63.0201 89.1738 63.2148 89.1823 63.3804 89.1182C63.8035 88.9547 64.05 88.6434 64.1198 88.1844C64.1248 88.153 64.1173 88.1247 64.0974 88.0995C64.0599 88.0524 64.0521 87.9992 64.074 87.9401C64.0789 87.9271 64.0809 87.9131 64.0798 87.8991C64.0787 87.885 64.0744 87.8713 64.0674 87.859C63.8809 87.5232 63.5991 87.2956 63.2223 87.1761C61.707 86.6969 60.0663 86.0669 59.7574 84.3427C59.4682 82.7297 60.4828 81.1414 62.1852 80.9131C62.3041 80.8971 62.379 80.8471 62.4885 80.8405C63.2828 80.799 63.8316 80.7993 64.1348 80.8414C65.0346 80.9678 65.8367 81.3064 66.5411 81.8573C66.5476 81.8623 66.5529 81.8686 66.5569 81.8758C66.5609 81.883 66.5634 81.8909 66.5643 81.8991C66.5651 81.9073 66.5644 81.9156 66.562 81.9235C66.5596 81.9313 66.5557 81.9387 66.5505 81.945L65.2589 83.4985C65.194 83.5771 65.1244 83.5815 65.0502 83.5117C64.5242 83.0174 63.5555 82.6807 62.8685 83.0768C62.4529 83.3155 62.3462 83.789 62.6832 84.1502C62.7421 84.2134 62.9948 84.4021 63.0875 84.4341C64.7357 84.9991 66.7957 85.3594 67.0372 87.4779C67.2421 89.2644 66.1855 90.7632 64.4858 91.3036C63.8125 91.5181 63.0285 91.5687 62.1338 91.4555C62.1063 91.4524 62.0798 91.4448 62.0542 91.4329L62.0046 91.4083C61.9834 91.3983 61.9616 91.3961 61.9391 91.4017C61.8811 91.4168 61.7925 91.4102 61.6733 91.3819C61.0527 91.2348 60.0625 90.8471 59.6376 90.3482C59.6201 90.328 59.6011 90.3126 59.5805 90.3019Z" fill="#597B00"/>
<path d="M40.6522 86.5596C40.6575 86.5715 40.6661 86.5816 40.677 86.5886C40.6879 86.5956 40.7006 86.5993 40.7137 86.5992C40.7267 86.5991 40.7395 86.5952 40.7505 86.588C40.7615 86.5808 40.7702 86.5706 40.7757 86.5586C41.165 85.6764 41.5666 84.8074 41.9803 83.9516C41.9909 83.9302 41.9977 83.9107 42.0008 83.8931C42.0046 83.8767 42.0099 83.861 42.0168 83.8459L43.2531 81.1757C43.2613 81.1581 43.2743 81.1433 43.2905 81.133C43.3068 81.1226 43.3256 81.1171 43.3449 81.1172H46.4447C46.4815 81.1172 46.4918 81.1342 46.4756 81.1681L41.4168 91.3606C41.4079 91.379 41.3939 91.3945 41.3765 91.4054C41.3591 91.4162 41.3391 91.4219 41.3185 91.4219H40.0934C40.0634 91.4219 40.0416 91.4084 40.0279 91.3814L34.9326 81.1691C34.9299 81.1636 34.9285 81.1575 34.9287 81.1513C34.9289 81.1452 34.9307 81.1392 34.9338 81.134C34.9369 81.1288 34.9412 81.1245 34.9465 81.1215C34.9517 81.1186 34.9575 81.1171 34.9635 81.1172H38.0821C38.1101 81.1172 38.1301 81.1301 38.142 81.1559L40.6522 86.5596Z" fill="#597B00"/>
</g>
<defs>
<clipPath id="clip0_974_11358">
<rect width="67" height="103" fill="white"/>
</clipPath>
</defs>
</svg>
